<svg width="124" height="176" viewBox="0 0 124 176" fill="none" xmlns="http://www.w3.org/2000/svg">
<path fill-rule="evenodd" clip-rule="evenodd" d="M0 88C0 39.399 39.399 0 88 0C136.601 0 176 39.399 176 88C176 136.601 136.601 176 88 176C39.399 176 0 136.601 0 88ZM20.2487 97.7778C24.9932 130.947 53.519 156.444 88 156.444C122.481 156.444 151.007 130.947 155.751 97.7778H115.664C111.637 109.171 100.772 117.333 88 117.333C75.2283 117.333 64.3623 109.171 60.3355 97.7778H20.2487ZM155.751 78.2222C151.007 45.0532 122.481 19.5556 88 19.5556C53.519 19.5556 24.9932 45.0532 20.2487 78.2222H60.3355C64.3623 66.8293 75.2283 58.6667 88 58.6667C100.772 58.6667 111.637 66.8293 115.664 78.2222H155.751ZM88 97.7778C93.4003 97.7778 97.7778 93.4003 97.7778 88C97.7778 82.5997 93.4003 78.2222 88 78.2222C82.5997 78.2222 78.2222 82.5997 78.2222 88C78.2222 93.4003 82.5997 97.7778 88 97.7778Z" fill="#DCEECF"/>
</svg>
